# xmcd CD database file
#
# Track frame offsets:
#	150
#	47509
#	89762
#	125495
#	180064
#	219370
#	229565
#	245110
#	261798
#
# Disc length: 3698 seconds
#
# Revision: 0
# Processed by: cddbd v1.5.2PL0 Copyright (c) Steve Scherf et al.
# Submitted via: cdripper 1,0,39,0213
#
DISCID=730e7009
DTITLE=Ramtha - The Mechanic of creating cd2
DYEAR=1900
DGENRE=Blues
TTITLE0=carbules electron activity and frecuency
TTITLE1=harmonic movement of carbules
TTITLE2=lucid dreaming and hibernation
TTITLE3=daniel and the  lion den
TTITLE4=from dante to count monte cristo
TTITLE5=liberty from the body prison througth consciusness
TTITLE6=magnetic signature
TTITLE7=when wisdom and joy come
TTITLE8=the blue star music mozart and tchaikovsky
EXTD=
EXTT0=
EXTT1=
EXTT2=
EXTT3=
EXTT4=
EXTT5=
EXTT6=
EXTT7=
EXTT8=
PLAYORDER=
